<svg xmlns="http://www.w3.org/2000/svg" fill="none" viewBox="0 0 278 244">
  <path fill="#fff" fill-rule="evenodd" d="M168.913 39.6344C193.627 50.9821 210.79 75.9571 210.79 104.943C210.79 144.608 178.649 176.763 139 176.763C99.3513 176.763 67.2096 144.608 67.2096 104.943C67.2096 75.9571 84.3731 50.9821 109.087 39.6344V2H168.913V39.6344ZM110.284 39.0982V3.19701H167.716V39.0982C158.922 35.2544 149.21 33.1221 139 33.1221C128.79 33.1221 119.078 35.2544 110.284 39.0982ZM139 175.566C177.988 175.566 209.594 143.947 209.594 104.943C209.594 65.9383 177.988 34.3191 139 34.3191C100.012 34.3191 68.4061 65.9383 68.4061 104.943C68.4061 143.947 100.012 175.566 139 175.566Z" clip-rule="evenodd"/>
  <path fill="#fff" fill-rule="evenodd" d="M210.132 33.1633C210.132 33.0045 210.195 32.8522 210.307 32.74L235.028 8.02823C235.261 7.79465 235.64 7.79472 235.874 8.02839C236.107 8.26206 236.107 8.64121 235.873 8.87497L211.172 33.6054C211.06 33.7177 210.908 33.7808 210.749 33.7808C210.591 33.7809 210.438 33.7178 210.326 33.6055L210.307 33.5866C210.195 33.4743 210.132 33.322 210.132 33.1633ZM210.74 33.1729L210.749 33.1823L235.451 8.4516L210.73 33.1634L210.74 33.1729Z" clip-rule="evenodd"/>
  <path fill="#fff" fill-rule="evenodd" d="M240.702 105.554C240.372 105.555 240.105 105.289 240.103 104.959L240.103 104.933C240.102 104.773 240.165 104.62 240.277 104.507C240.389 104.394 240.542 104.331 240.701 104.331L275.402 104.344C275.732 104.344 276 104.612 276 104.943C276 105.273 275.732 105.541 275.401 105.541L240.702 105.554ZM240.701 104.956L275.402 104.943L240.701 104.929L240.701 104.956Z" clip-rule="evenodd"/>
  <path fill="#fff" fill-rule="evenodd" d="M211.768 176.876C211.655 176.763 211.502 176.7 211.342 176.701C211.183 176.701 211.03 176.766 210.918 176.879L210.9 176.898C210.669 177.132 210.671 177.509 210.903 177.741L235.027 201.857C235.261 202.09 235.64 202.09 235.874 201.857C236.107 201.623 236.107 201.244 235.874 201.011L211.768 176.876ZM235.451 201.434L211.326 177.318L211.345 177.299L235.451 201.434Z" clip-rule="evenodd"/>
  <path fill="#fff" fill-rule="evenodd" d="M138.389 207.884C138.389 207.555 138.655 207.287 138.984 207.285L139.009 207.285C139.169 207.284 139.322 207.347 139.435 207.459C139.548 207.572 139.611 207.724 139.611 207.884L139.598 241.402C139.598 241.732 139.33 242 139 242C138.67 242 138.402 241.732 138.402 241.401L138.389 207.884ZM138.987 207.884L139 241.402L139.013 207.883L138.987 207.884Z" clip-rule="evenodd"/>
  <path fill="#fff" fill-rule="evenodd" d="M66.4957 178.342C66.608 178.229 66.6711 178.077 66.6711 177.918C66.6711 177.76 66.608 177.607 66.4957 177.495L66.4777 177.477C66.3654 177.365 66.2132 177.302 66.0546 177.302C65.8959 177.302 65.7437 177.365 65.6316 177.477L42.1265 201.01C41.893 201.244 41.8928 201.623 42.1264 201.857C42.3599 202.09 42.7386 202.091 42.9723 201.857L66.4957 178.342ZM42.5494 201.434L66.0548 177.9L66.0728 177.918L42.5494 201.434Z" clip-rule="evenodd"/>
  <path fill="#fff" fill-rule="evenodd" d="M36.5264 104.508C36.6387 104.621 36.7014 104.774 36.7005 104.933L36.7003 104.959C36.6984 105.288 36.431 105.554 36.1018 105.554L2.59802 105.541C2.26771 105.541 2 105.273 2 104.943C2 104.612 2.26817 104.344 2.59848 104.344L36.102 104.331C36.2613 104.331 36.414 104.395 36.5264 104.508ZM2.59825 104.943L36.1022 104.93L36.1021 104.955L2.59825 104.943Z" clip-rule="evenodd"/>
  <path fill="#fff" fill-rule="evenodd" d="M66.232 33.009C66.4643 33.2416 66.8405 33.2432 67.0748 33.0126L67.0934 32.9943C67.2071 32.8823 67.2714 32.7296 67.2721 32.57C67.2727 32.4104 67.2095 32.2571 67.0967 32.1443L42.9726 8.02855C42.7389 7.79498 42.3599 7.79472 42.1264 8.02839C41.8928 8.26206 41.8927 8.64089 42.1262 8.87464L66.232 33.009ZM66.6737 32.5675L42.5494 8.4516L66.6552 32.586L66.6737 32.5675Z" clip-rule="evenodd"/>
  <path stroke="#fff" stroke-linejoin="round" stroke-width="4" d="M168.913 39.6344C193.627 50.9821 210.79 75.9571 210.79 104.943C210.79 144.608 178.649 176.763 139 176.763C99.3513 176.763 67.2096 144.608 67.2096 104.943C67.2096 75.9571 84.3731 50.9821 109.087 39.6344V2H168.913V39.6344ZM110.284 39.0982V3.19701H167.716V39.0982C158.922 35.2544 149.21 33.1221 139 33.1221C128.79 33.1221 119.078 35.2544 110.284 39.0982ZM139 175.566C177.988 175.566 209.594 143.947 209.594 104.943C209.594 65.9383 177.988 34.3191 139 34.3191C100.012 34.3191 68.4061 65.9383 68.4061 104.943C68.4061 143.947 100.012 175.566 139 175.566Z" clip-rule="evenodd"/>
  <path stroke="#fff" stroke-linejoin="round" stroke-width="4" d="M210.132 33.1633C210.132 33.0045 210.195 32.8522 210.307 32.74L235.028 8.02823C235.261 7.79465 235.64 7.79472 235.874 8.02839C236.107 8.26206 236.107 8.64121 235.873 8.87497L211.172 33.6054C211.06 33.7177 210.908 33.7808 210.749 33.7808C210.591 33.7809 210.438 33.7178 210.326 33.6055L210.307 33.5866C210.195 33.4743 210.132 33.322 210.132 33.1633ZM210.74 33.1729L210.749 33.1823L235.451 8.4516L210.73 33.1634L210.74 33.1729Z" clip-rule="evenodd"/>
  <path stroke="#fff" stroke-linejoin="round" stroke-width="4" d="M240.702 105.554C240.372 105.555 240.105 105.289 240.103 104.959L240.103 104.933C240.102 104.773 240.165 104.62 240.277 104.507C240.389 104.394 240.542 104.331 240.701 104.331L275.402 104.344C275.732 104.344 276 104.612 276 104.943C276 105.273 275.732 105.541 275.401 105.541L240.702 105.554ZM240.701 104.956L275.402 104.943L240.701 104.929L240.701 104.956Z" clip-rule="evenodd"/>
  <path stroke="#fff" stroke-linejoin="round" stroke-width="4" d="M211.768 176.876C211.655 176.763 211.502 176.7 211.342 176.701C211.183 176.701 211.03 176.766 210.918 176.879L210.9 176.898C210.669 177.132 210.671 177.509 210.903 177.741L235.027 201.857C235.261 202.09 235.64 202.09 235.874 201.857C236.107 201.623 236.107 201.244 235.874 201.011L211.768 176.876ZM235.451 201.434L211.326 177.318L211.345 177.299L235.451 201.434Z" clip-rule="evenodd"/>
  <path stroke="#fff" stroke-linejoin="round" stroke-width="4" d="M138.389 207.884C138.389 207.555 138.655 207.287 138.984 207.285L139.009 207.285C139.169 207.284 139.322 207.347 139.435 207.459C139.548 207.572 139.611 207.724 139.611 207.884L139.598 241.402C139.598 241.732 139.33 242 139 242C138.67 242 138.402 241.732 138.402 241.401L138.389 207.884ZM138.987 207.884L139 241.402L139.013 207.883L138.987 207.884Z" clip-rule="evenodd"/>
  <path stroke="#fff" stroke-linejoin="round" stroke-width="4" d="M66.4957 178.342C66.608 178.229 66.6711 178.077 66.6711 177.918C66.6711 177.76 66.608 177.607 66.4957 177.495L66.4777 177.477C66.3654 177.365 66.2132 177.302 66.0546 177.302C65.8959 177.302 65.7437 177.365 65.6316 177.477L42.1265 201.01C41.893 201.244 41.8928 201.623 42.1264 201.857C42.3599 202.09 42.7386 202.091 42.9723 201.857L66.4957 178.342ZM42.5494 201.434L66.0548 177.9L66.0728 177.918L42.5494 201.434Z" clip-rule="evenodd"/>
  <path stroke="#fff" stroke-linejoin="round" stroke-width="4" d="M36.5264 104.508C36.6387 104.621 36.7014 104.774 36.7005 104.933L36.7003 104.959C36.6984 105.288 36.431 105.554 36.1018 105.554L2.59802 105.541C2.26771 105.541 2 105.273 2 104.943C2 104.612 2.26817 104.344 2.59848 104.344L36.102 104.331C36.2613 104.331 36.414 104.395 36.5264 104.508ZM2.59825 104.943L36.1022 104.93L36.1021 104.955L2.59825 104.943Z" clip-rule="evenodd"/>
  <path stroke="#fff" stroke-linejoin="round" stroke-width="4" d="M66.232 33.009C66.4643 33.2416 66.8405 33.2432 67.0748 33.0126L67.0934 32.9943C67.2071 32.8823 67.2714 32.7296 67.2721 32.57C67.2727 32.4104 67.2095 32.2571 67.0967 32.1443L42.9726 8.02855C42.7389 7.79498 42.3599 7.79472 42.1264 8.02839C41.8928 8.26206 41.8927 8.64089 42.1262 8.87464L66.232 33.009ZM66.6737 32.5675L42.5494 8.4516L66.6552 32.586L66.6737 32.5675Z" clip-rule="evenodd"/>
</svg>

