<svg width="723" height="516" viewBox="0 0 723 516" fill="none" xmlns="http://www.w3.org/2000/svg">
<path d="M459.26 269V222.87H471.79C475.243 222.87 478.183 223.29 480.61 224.13C483.083 224.923 484.973 226.277 486.28 228.19C487.587 230.057 488.24 232.577 488.24 235.75C488.24 238.737 487.587 241.233 486.28 243.24C484.973 245.2 483.083 246.693 480.61 247.72C478.183 248.7 475.243 249.19 471.79 249.19H462.48V269H459.26ZM462.48 246.46H471.02C475.733 246.46 479.233 245.62 481.52 243.94C483.807 242.213 484.95 239.483 484.95 235.75C484.95 231.877 483.807 229.217 481.52 227.77C479.233 226.323 475.733 225.6 471.02 225.6H462.48V246.46ZM516.213 269.84C512.853 269.84 509.866 268.86 507.253 266.9C504.686 264.94 502.656 262.163 501.163 258.57C499.716 254.93 498.993 250.66 498.993 245.76C498.993 240.907 499.716 236.707 501.163 233.16C502.656 229.567 504.686 226.813 507.253 224.9C509.866 222.987 512.853 222.03 516.213 222.03C519.573 222.03 522.536 222.987 525.103 224.9C527.716 226.813 529.746 229.567 531.193 233.16C532.686 236.707 533.433 240.907 533.433 245.76C533.433 250.66 532.686 254.93 531.193 258.57C529.746 262.163 527.716 264.94 525.103 266.9C522.536 268.86 519.573 269.84 516.213 269.84ZM516.213 266.9C518.966 266.9 521.369 266.037 523.423 264.31C525.523 262.583 527.156 260.133 528.323 256.96C529.489 253.787 530.073 250.053 530.073 245.76C530.073 241.513 529.489 237.827 528.323 234.7C527.156 231.573 525.523 229.17 523.423 227.49C521.369 225.81 518.966 224.97 516.213 224.97C513.459 224.97 511.033 225.81 508.933 227.49C506.879 229.17 505.269 231.573 504.103 234.7C502.936 237.827 502.353 241.513 502.353 245.76C502.353 250.053 502.936 253.787 504.103 256.96C505.269 260.133 506.879 262.583 508.933 264.31C511.033 266.037 513.459 266.9 516.213 266.9ZM547.615 269V222.87H560.775C563.855 222.87 566.515 223.267 568.755 224.06C571.042 224.853 572.815 226.16 574.075 227.98C575.335 229.753 575.965 232.11 575.965 235.05C575.965 237.85 575.335 240.207 574.075 242.12C572.815 243.987 571.042 245.41 568.755 246.39C566.515 247.323 563.855 247.79 560.775 247.79H550.835V269H547.615ZM550.835 245.13H559.935C564.042 245.13 567.192 244.313 569.385 242.68C571.579 241 572.675 238.457 572.675 235.05C572.675 231.597 571.579 229.17 569.385 227.77C567.192 226.323 564.042 225.6 559.935 225.6H550.835V245.13ZM560.075 246.88L563.155 245.97L576.875 269H573.095L560.075 246.88ZM470.39 346V302.6H454.36V299.87H489.64V302.6H473.61V346H470.39ZM505.713 346V299.87H532.593V302.67H508.933V321.01H528.883V323.81H508.933V346H505.713ZM560.425 346.84C557.065 346.84 554.079 345.86 551.465 343.9C548.899 341.94 546.869 339.163 545.375 335.57C543.929 331.93 543.205 327.66 543.205 322.76C543.205 317.907 543.929 313.707 545.375 310.16C546.869 306.567 548.899 303.813 551.465 301.9C554.079 299.987 557.065 299.03 560.425 299.03C563.785 299.03 566.749 299.987 569.315 301.9C571.929 303.813 573.959 306.567 575.405 310.16C576.899 313.707 577.645 317.907 577.645 322.76C577.645 327.66 576.899 331.93 575.405 335.57C573.959 339.163 571.929 341.94 569.315 343.9C566.749 345.86 563.785 346.84 560.425 346.84ZM560.425 343.9C563.179 343.9 565.582 343.037 567.635 341.31C569.735 339.583 571.369 337.133 572.535 333.96C573.702 330.787 574.285 327.053 574.285 322.76C574.285 318.513 573.702 314.827 572.535 311.7C571.369 308.573 569.735 306.17 567.635 304.49C565.582 302.81 563.179 301.97 560.425 301.97C557.672 301.97 555.245 302.81 553.145 304.49C551.092 306.17 549.482 308.573 548.315 311.7C547.149 314.827 546.565 318.513 546.565 322.76C546.565 327.053 547.149 330.787 548.315 333.96C549.482 337.133 551.092 339.583 553.145 341.31C555.245 343.037 557.672 343.9 560.425 343.9ZM505.713 423V376.87H508.793V420.2H532.943V423H505.713ZM546.915 423V420.2H558.815V379.67H546.915V376.87H573.935V379.67H562.035V420.2H573.935V423H546.915ZM604.638 423.84C601.278 423.84 598.291 422.86 595.678 420.9C593.111 418.94 591.081 416.163 589.588 412.57C588.141 408.93 587.418 404.66 587.418 399.76C587.418 394.907 588.141 390.707 589.588 387.16C591.081 383.567 593.111 380.813 595.678 378.9C598.291 376.987 601.278 376.03 604.638 376.03C607.998 376.03 610.961 376.987 613.528 378.9C616.141 380.813 618.171 383.567 619.618 387.16C621.111 390.707 621.858 394.907 621.858 399.76C621.858 404.66 621.111 408.93 619.618 412.57C618.171 416.163 616.141 418.94 613.528 420.9C610.961 422.86 607.998 423.84 604.638 423.84ZM604.638 420.9C607.391 420.9 609.795 420.037 611.848 418.31C613.948 416.583 615.581 414.133 616.748 410.96C617.915 407.787 618.498 404.053 618.498 399.76C618.498 395.513 617.915 391.827 616.748 388.7C615.581 385.573 613.948 383.17 611.848 381.49C609.795 379.81 607.391 378.97 604.638 378.97C601.885 378.97 599.458 379.81 597.358 381.49C595.305 383.17 593.695 385.573 592.528 388.7C591.361 391.827 590.778 395.513 590.778 399.76C590.778 404.053 591.361 407.787 592.528 410.96C593.695 414.133 595.305 416.583 597.358 418.31C599.458 420.037 601.885 420.9 604.638 420.9Z" fill="white"/>
<path d="M20.45 148.6C17.95 148.6 15.7167 148.133 13.75 147.2C11.8167 146.267 10.1667 145.083 8.8 143.65L10.3 142.05C11.5667 143.417 13.0667 144.5 14.8 145.3C16.5667 146.1 18.4667 146.5 20.5 146.5C23.1333 146.5 25.2333 145.9 26.8 144.7C28.3667 143.467 29.15 141.883 29.15 139.95C29.15 138.55 28.85 137.433 28.25 136.6C27.6833 135.767 26.9167 135.083 25.95 134.55C24.9833 134.017 23.9 133.5 22.7 133L17.75 130.75C16.7167 130.317 15.6333 129.783 14.5 129.15C13.4 128.483 12.4667 127.633 11.7 126.6C10.9333 125.533 10.55 124.183 10.55 122.55C10.55 120.95 10.9833 119.55 11.85 118.35C12.7167 117.117 13.9167 116.167 15.45 115.5C16.9833 114.8 18.7 114.45 20.6 114.45C22.7 114.45 24.5667 114.85 26.2 115.65C27.8667 116.417 29.2333 117.333 30.3 118.4L28.95 119.9C27.95 118.867 26.75 118.05 25.35 117.45C23.95 116.85 22.35 116.55 20.55 116.55C18.2833 116.55 16.4333 117.083 15 118.15C13.5667 119.217 12.85 120.65 12.85 122.45C12.85 123.717 13.1833 124.75 13.85 125.55C14.55 126.35 15.3667 127 16.3 127.5C17.2667 128 18.1833 128.433 19.05 128.8L24 131C25.3333 131.533 26.5667 132.167 27.7 132.9C28.8333 133.6 29.7333 134.5 30.4 135.6C31.1 136.667 31.45 138.05 31.45 139.75C31.45 141.417 30.9833 142.933 30.05 144.3C29.15 145.633 27.8667 146.683 26.2 147.45C24.5667 148.217 22.65 148.6 20.45 148.6ZM51.5805 148.6C50.2138 148.6 48.8971 148.4 47.6305 148C46.3638 147.567 45.2305 146.867 44.2305 145.9C43.2305 144.933 42.4471 143.617 41.8805 141.95C41.3138 140.25 41.0305 138.15 41.0305 135.65V115.05H43.3305V135.4C43.3305 138.233 43.7138 140.467 44.4805 142.1C45.2471 143.7 46.2471 144.833 47.4805 145.5C48.7471 146.167 50.1138 146.5 51.5805 146.5C53.0805 146.5 54.4638 146.167 55.7305 145.5C56.9971 144.833 58.0138 143.7 58.7805 142.1C59.5805 140.467 59.9805 138.233 59.9805 135.4V115.05H62.1305V135.65C62.1305 138.15 61.8471 140.25 61.2805 141.95C60.7138 143.617 59.9305 144.933 58.9305 145.9C57.9305 146.867 56.7971 147.567 55.5305 148C54.2971 148.4 52.9805 148.6 51.5805 148.6ZM83.6109 148.6C81.1109 148.6 78.8776 148.133 76.9109 147.2C74.9776 146.267 73.3276 145.083 71.9609 143.65L73.4609 142.05C74.7276 143.417 76.2276 144.5 77.9609 145.3C79.7276 146.1 81.6276 146.5 83.6609 146.5C86.2943 146.5 88.3943 145.9 89.9609 144.7C91.5276 143.467 92.3109 141.883 92.3109 139.95C92.3109 138.55 92.0109 137.433 91.4109 136.6C90.8443 135.767 90.0776 135.083 89.1109 134.55C88.1443 134.017 87.0609 133.5 85.8609 133L80.9109 130.75C79.8776 130.317 78.7943 129.783 77.6609 129.15C76.5609 128.483 75.6276 127.633 74.8609 126.6C74.0943 125.533 73.7109 124.183 73.7109 122.55C73.7109 120.95 74.1443 119.55 75.0109 118.35C75.8776 117.117 77.0776 116.167 78.6109 115.5C80.1443 114.8 81.8609 114.45 83.7609 114.45C85.8609 114.45 87.7276 114.85 89.3609 115.65C91.0276 116.417 92.3943 117.333 93.4609 118.4L92.1109 119.9C91.1109 118.867 89.9109 118.05 88.5109 117.45C87.1109 116.85 85.5109 116.55 83.7109 116.55C81.4443 116.55 79.5943 117.083 78.1609 118.15C76.7276 119.217 76.0109 120.65 76.0109 122.45C76.0109 123.717 76.3443 124.75 77.0109 125.55C77.7109 126.35 78.5276 127 79.4609 127.5C80.4276 128 81.3443 128.433 82.2109 128.8L87.1609 131C88.4943 131.533 89.7276 132.167 90.8609 132.9C91.9943 133.6 92.8943 134.5 93.5609 135.6C94.2609 136.667 94.6109 138.05 94.6109 139.75C94.6109 141.417 94.1443 142.933 93.2109 144.3C92.3109 145.633 91.0276 146.683 89.3609 147.45C87.7276 148.217 85.8109 148.6 83.6109 148.6ZM101.991 148L113.591 115.05H115.891L127.491 148H125.041L118.491 128.6C117.825 126.633 117.191 124.75 116.591 122.95C115.991 121.117 115.408 119.2 114.841 117.2H114.641C114.041 119.2 113.441 121.117 112.841 122.95C112.275 124.75 111.658 126.633 110.991 128.6L104.291 148H101.991ZM107.291 136.7V134.75H122.041V136.7H107.291ZM135.922 148V115.05H138.372L151.222 138.35L154.722 144.85H154.822C154.789 143.283 154.722 141.7 154.622 140.1C154.555 138.5 154.522 136.9 154.522 135.3V115.05H156.722V148H154.272L141.422 124.7L137.922 118.2H137.822C137.855 119.8 137.905 121.367 137.972 122.9C138.072 124.4 138.122 125.95 138.122 127.55V148H135.922ZM167.502 148V115.05H169.952L182.802 138.35L186.302 144.85H186.402C186.369 143.283 186.302 141.7 186.202 140.1C186.136 138.5 186.102 136.9 186.102 135.3V115.05H188.302V148H185.852L173.002 124.7L169.502 118.2H169.402C169.436 119.8 169.486 121.367 169.552 122.9C169.652 124.4 169.702 125.95 169.702 127.55V148H167.502ZM196.733 148L208.333 115.05H210.633L222.233 148H219.783L213.233 128.6C212.566 126.633 211.933 124.75 211.333 122.95C210.733 121.117 210.149 119.2 209.583 117.2H209.383C208.783 119.2 208.183 121.117 207.583 122.95C207.016 124.75 206.399 126.633 205.733 128.6L199.033 148H196.733ZM202.033 136.7V134.75H216.783V136.7H202.033ZM73.8609 203V170.05H82.2109C84.4776 170.05 86.4109 170.333 88.0109 170.9C89.6443 171.467 90.8776 172.35 91.7109 173.55C92.5776 174.717 93.0109 176.217 93.0109 178.05C93.0109 179.75 92.5276 181.25 91.5609 182.55C90.5943 183.85 89.1276 184.75 87.1609 185.25V185.45C89.6276 185.783 91.5609 186.617 92.9609 187.95C94.3609 189.283 95.0609 191.1 95.0609 193.4C95.0609 195.5 94.5609 197.267 93.5609 198.7C92.5943 200.133 91.1943 201.217 89.3609 201.95C87.5609 202.65 85.3943 203 82.8609 203H73.8609ZM76.1609 184.5H81.3109C84.6776 184.5 87.0776 183.967 88.5109 182.9C89.9776 181.833 90.7109 180.25 90.7109 178.15C90.7109 175.95 89.9609 174.383 88.4609 173.45C86.9609 172.483 84.6609 172 81.5609 172H76.1609V184.5ZM76.1609 201.05H82.2609C85.6276 201.05 88.2109 200.45 90.0109 199.25C91.8443 198.017 92.7609 196.067 92.7609 193.4C92.7609 191.033 91.8443 189.3 90.0109 188.2C88.2109 187.067 85.6276 186.5 82.2609 186.5H76.1609V201.05ZM106.091 203V170.05H125.591V172.05H108.391V184.5H122.891V186.5H108.391V201H126.091V203H106.091ZM137.172 203V170.05H146.572C148.772 170.05 150.672 170.333 152.272 170.9C153.905 171.467 155.172 172.4 156.072 173.7C156.972 174.967 157.422 176.65 157.422 178.75C157.422 180.75 156.972 182.433 156.072 183.8C155.172 185.133 153.905 186.15 152.272 186.85C150.672 187.517 148.772 187.85 146.572 187.85H139.472V203H137.172ZM139.472 185.95H145.972C148.905 185.95 151.155 185.367 152.722 184.2C154.289 183 155.072 181.183 155.072 178.75C155.072 176.283 154.289 174.55 152.722 173.55C151.155 172.517 148.905 172 145.972 172H139.472V185.95ZM146.072 187.2L148.272 186.55L158.072 203H155.372L146.072 187.2ZM167.502 203V170.05H169.952L182.802 193.35L186.302 199.85H186.402C186.369 198.283 186.302 196.7 186.202 195.1C186.136 193.5 186.102 191.9 186.102 190.3V170.05H188.302V203H185.852L173.002 179.7L169.502 173.2H169.402C169.436 174.8 169.486 176.367 169.552 177.9C169.652 179.4 169.702 180.95 169.702 182.55V203H167.502ZM208.333 203V172H196.883V170.05H222.083V172H210.633V203H208.333ZM146.772 258.6C144.272 258.6 142.039 258.133 140.072 257.2C138.139 256.267 136.489 255.083 135.122 253.65L136.622 252.05C137.889 253.417 139.389 254.5 141.122 255.3C142.889 256.1 144.789 256.5 146.822 256.5C149.455 256.5 151.555 255.9 153.122 254.7C154.689 253.467 155.472 251.883 155.472 249.95C155.472 248.55 155.172 247.433 154.572 246.6C154.005 245.767 153.239 245.083 152.272 244.55C151.305 244.017 150.222 243.5 149.022 243L144.072 240.75C143.039 240.317 141.955 239.783 140.822 239.15C139.722 238.483 138.789 237.633 138.022 236.6C137.255 235.533 136.872 234.183 136.872 232.55C136.872 230.95 137.305 229.55 138.172 228.35C139.039 227.117 140.239 226.167 141.772 225.5C143.305 224.8 145.022 224.45 146.922 224.45C149.022 224.45 150.889 224.85 152.522 225.65C154.189 226.417 155.555 227.333 156.622 228.4L155.272 229.9C154.272 228.867 153.072 228.05 151.672 227.45C150.272 226.85 148.672 226.55 146.872 226.55C144.605 226.55 142.755 227.083 141.322 228.15C139.889 229.217 139.172 230.65 139.172 232.45C139.172 233.717 139.505 234.75 140.172 235.55C140.872 236.35 141.689 237 142.622 237.5C143.589 238 144.505 238.433 145.372 238.8L150.322 241C151.655 241.533 152.889 242.167 154.022 242.9C155.155 243.6 156.055 244.5 156.722 245.6C157.422 246.667 157.772 248.05 157.772 249.75C157.772 251.417 157.305 252.933 156.372 254.3C155.472 255.633 154.189 256.683 152.522 257.45C150.889 258.217 148.972 258.6 146.772 258.6ZM178.352 258.6C175.852 258.6 173.619 258.133 171.652 257.2C169.719 256.267 168.069 255.083 166.702 253.65L168.202 252.05C169.469 253.417 170.969 254.5 172.702 255.3C174.469 256.1 176.369 256.5 178.402 256.5C181.036 256.5 183.136 255.9 184.702 254.7C186.269 253.467 187.052 251.883 187.052 249.95C187.052 248.55 186.752 247.433 186.152 246.6C185.586 245.767 184.819 245.083 183.852 244.55C182.886 244.017 181.802 243.5 180.602 243L175.652 240.75C174.619 240.317 173.536 239.783 172.402 239.15C171.302 238.483 170.369 237.633 169.602 236.6C168.836 235.533 168.452 234.183 168.452 232.55C168.452 230.95 168.886 229.55 169.752 228.35C170.619 227.117 171.819 226.167 173.352 225.5C174.886 224.8 176.602 224.45 178.502 224.45C180.602 224.45 182.469 224.85 184.102 225.65C185.769 226.417 187.136 227.333 188.202 228.4L186.852 229.9C185.852 228.867 184.652 228.05 183.252 227.45C181.852 226.85 180.252 226.55 178.452 226.55C176.186 226.55 174.336 227.083 172.902 228.15C171.469 229.217 170.752 230.65 170.752 232.45C170.752 233.717 171.086 234.75 171.752 235.55C172.452 236.35 173.269 237 174.202 237.5C175.169 238 176.086 238.433 176.952 238.8L181.902 241C183.236 241.533 184.469 242.167 185.602 242.9C186.736 243.6 187.636 244.5 188.302 245.6C189.002 246.667 189.352 248.05 189.352 249.75C189.352 251.417 188.886 252.933 187.952 254.3C187.052 255.633 185.769 256.683 184.102 257.45C182.469 258.217 180.552 258.6 178.352 258.6ZM209.483 258.6C207.083 258.6 204.949 257.9 203.083 256.5C201.249 255.1 199.799 253.117 198.733 250.55C197.699 247.95 197.183 244.9 197.183 241.4C197.183 237.933 197.699 234.933 198.733 232.4C199.799 229.833 201.249 227.867 203.083 226.5C204.949 225.133 207.083 224.45 209.483 224.45C211.883 224.45 213.999 225.133 215.833 226.5C217.699 227.867 219.149 229.833 220.183 232.4C221.249 234.933 221.783 237.933 221.783 241.4C221.783 244.9 221.249 247.95 220.183 250.55C219.149 253.117 217.699 255.1 215.833 256.5C213.999 257.9 211.883 258.6 209.483 258.6ZM209.483 256.5C211.449 256.5 213.166 255.883 214.633 254.65C216.133 253.417 217.299 251.667 218.133 249.4C218.966 247.133 219.383 244.467 219.383 241.4C219.383 238.367 218.966 235.733 218.133 233.5C217.299 231.267 216.133 229.55 214.633 228.35C213.166 227.15 211.449 226.55 209.483 226.55C207.516 226.55 205.783 227.15 204.283 228.35C202.816 229.55 201.666 231.267 200.833 233.5C199.999 235.733 199.583 238.367 199.583 241.4C199.583 244.467 199.999 247.133 200.833 249.4C201.666 251.667 202.816 253.417 204.283 254.65C205.783 255.883 207.516 256.5 209.483 256.5ZM230.663 258V225.05H233.113L245.963 248.35L249.463 254.85H249.563C249.53 253.283 249.463 251.7 249.363 250.1C249.297 248.5 249.263 246.9 249.263 245.3V225.05H251.463V258H249.013L236.163 234.7L232.663 228.2H232.563C232.597 229.8 232.647 231.367 232.713 232.9C232.813 234.4 232.863 235.95 232.863 237.55V258H230.663Z" fill="white"/>
</svg>
